<svg width="30" height="30" viewBox="0 0 30 30" fill="none" xmlns="http://www.w3.org/2000/svg">
<rect y="16.5" width="3" height="7" rx="1.5" transform="rotate(-90 0 16.5)" fill="url(#paint0_linear_141_423)"/>
<rect x="23" y="16.5" width="3" height="7" rx="1.5" transform="rotate(-90 23 16.5)" fill="url(#paint1_linear_141_423)"/>
<rect x="16.5" y="30" width="3" height="7" rx="1.5" transform="rotate(180 16.5 30)" fill="url(#paint2_linear_141_423)"/>
<rect x="16.5" y="7" width="3" height="7" rx="1.5" transform="rotate(180 16.5 7)" fill="url(#paint3_linear_141_423)"/>
<rect x="5.27734" y="26.4902" width="3" height="7.5" rx="1.5" transform="rotate(-135 5.27734 26.4902)" fill="url(#paint4_linear_141_423)"/>
<rect x="21.187" y="10.5811" width="3" height="7.5" rx="1.5" transform="rotate(-135 21.187 10.5811)" fill="url(#paint5_linear_141_423)"/>
<rect x="26.4902" y="24.7227" width="3" height="7.5" rx="1.5" transform="rotate(135 26.4902 24.7227)" fill="url(#paint6_linear_141_423)"/>
<rect x="10.5806" y="8.8125" width="3" height="7.5" rx="1.5" transform="rotate(135 10.5806 8.8125)" fill="url(#paint7_linear_141_423)"/>
<defs>
<linearGradient id="paint0_linear_141_423" x1="3" y1="20" x2="0" y2="20" gradientUnits="userSpaceOnUse">
<stop stop-color="#686FFF"/>
<stop offset="1" stop-color="#5459CE"/>
</linearGradient>
<linearGradient id="paint1_linear_141_423" x1="26" y1="20" x2="23" y2="20" gradientUnits="userSpaceOnUse">
<stop stop-color="#686FFF"/>
<stop offset="1" stop-color="#5459CE"/>
</linearGradient>
<linearGradient id="paint2_linear_141_423" x1="19.5" y1="33.5" x2="16.5" y2="33.5" gradientUnits="userSpaceOnUse">
<stop stop-color="#686FFF"/>
<stop offset="1" stop-color="#5459CE"/>
</linearGradient>
<linearGradient id="paint3_linear_141_423" x1="19.5" y1="10.5" x2="16.5" y2="10.5" gradientUnits="userSpaceOnUse">
<stop stop-color="#686FFF"/>
<stop offset="1" stop-color="#5459CE"/>
</linearGradient>
<linearGradient id="paint4_linear_141_423" x1="8.27734" y1="30.2402" x2="5.27734" y2="30.2402" gradientUnits="userSpaceOnUse">
<stop stop-color="#686FFF"/>
<stop offset="1" stop-color="#5459CE"/>
</linearGradient>
<linearGradient id="paint5_linear_141_423" x1="24.187" y1="14.3311" x2="21.187" y2="14.3311" gradientUnits="userSpaceOnUse">
<stop stop-color="#686FFF"/>
<stop offset="1" stop-color="#5459CE"/>
</linearGradient>
<linearGradient id="paint6_linear_141_423" x1="29.4902" y1="28.4727" x2="26.4902" y2="28.4727" gradientUnits="userSpaceOnUse">
<stop stop-color="#686FFF"/>
<stop offset="1" stop-color="#5459CE"/>
</linearGradient>
<linearGradient id="paint7_linear_141_423" x1="13.5806" y1="12.5625" x2="10.5806" y2="12.5625" gradientUnits="userSpaceOnUse">
<stop stop-color="#686FFF"/>
<stop offset="1" stop-color="#5459CE"/>
</linearGradient>
</defs>
</svg>
